<svg width="512" height="512" viewBox="0 0 64 64" fill="none" xmlns="http://www.w3.org/2000/svg" class="" data-fg-cpel7="1.16:1.19451:/src/app/components/WeatherIcons.tsx:53:7:1705:487:e:svg:ete" data-fgid-cpel7=":rl:" style="background-color: transparent;"><path d="M 52 32 H 26 C 20.48 32 16 27.52 16 22 C 16 16.87 19.9 12.57 24.96 12.09 C 26.65 6.33 31.89 2 38 2 C 44.54 2 50.05 6.75 51.45 12.96 C 56.81 13.71 61 18.23 61 23.67 C 61 29.19 57.19 32 52 32 Z" fill="#E2E8F0" data-fg-cpel8="1.16:1.19451:/src/app/components/WeatherIcons.tsx:54:9:1736:219:e:path"/><path d="M 49 46 H 17 C 10.37 46 5 40.63 5 34 C 5 27.8 9.7 22.63 15.78 22.06 C 17.8 15.15 24.1 10 31.5 10 C 39.35 10 45.97 15.7 47.65 23.15 C 54.07 24.06 59 29.47 59 36 C 59 42.63 55.63 46 49 46 Z" fill="#94A3B8" data-fg-cpel9="1.16:1.19451:/src/app/components/WeatherIcons.tsx:55:9:1964:215:e:path"/></svg>