<?xml version="1.0" encoding="UTF-8"?>
<svg viewBox="0 0 64 64" class="w-64 h-64" data-fg-d3bl17="0.8:2.20107:/src/app/App.tsx:65:5:2278:1772:e:svg:etxtxtetxtetxtetetxte:1" data-fgid-d3bl17=":r13:" data-fg-callsite-d3bl62="" id="night-heatwave-svg" xmlns="http://www.w3.org/2000/svg"><defs data-fg-d3bl18="0.8:2.20107:/src/app/App.tsx:66:7:2332:322:e:defs:e"><radialGradient id="emberGlow" cx="50%" cy="55%" r="50%" data-fg-d3bl19="0.8:2.20107:/src/app/App.tsx:67:9:2347:293:e:radialGradient:etete"><stop offset="0%" stop-color="#FF7A1A" stop-opacity="0.85" data-fg-d3bl20="0.8:2.20107:/src/app/App.tsx:68:11:2415:59:e:stop"/><stop offset="60%" stop-color="#FF3B30" stop-opacity="0.35" data-fg-d3bl21="0.8:2.20107:/src/app/App.tsx:69:11:2485:60:e:stop"/><stop offset="100%" stop-color="#FF3B30" stop-opacity="0" data-fg-d3bl22="0.8:2.20107:/src/app/App.tsx:70:11:2556:58:e:stop"/></radialGradient></defs><path d="M17.1 13.75 L17.75 15.9 L19.9 16.5 L17.75 17.1 L17.1 19.25 L16.5 17.1 L14.4 16.5 L16.5 15.9 Z" fill="#FFB000" data-fg-d3bl24="0.8:2.20107:/src/app/App.tsx:75:9:2693:37:e:path"/><path d="M43 15.75 L43.6 17.9 L45.75 18.5 L43.6 19.1 L43 21.25 L42.4 19.1 L40.25 18.5 L42.4 17.9 Z" fill="#FFB000" data-fg-d3bl24="0.8:2.20107:/src/app/App.tsx:75:9:2693:37:e:path"/><path d="M31.5 22.5 L32.1 24.5 L34.25 25.1 L32.1 25.7 L31.5 27.75 L30.9 25.7 L28.75 25.1 L30.9 24.5 Z" fill="#FFB000" data-fg-d3bl24="0.8:2.20107:/src/app/App.tsx:75:9:2693:37:e:path"/><path d="M37.25 33.4 L37.9 35.5 L40 36.1 L37.9 36.7 L37.25 38.9 L36.6 36.7 L34.5 36.1 L36.6 35.5 Z" fill="#FFB000" data-fg-d3bl24="0.8:2.20107:/src/app/App.tsx:75:9:2693:37:e:path"/><path d="M16 44.25 L16.6 46.4 L18.75 47 L16.6 47.6 L16 49.75 L15.4 47.6 L13.25 47 L15.4 46.4 Z" fill="#FFB000" data-fg-d3bl24="0.8:2.20107:/src/app/App.tsx:75:9:2693:37:e:path"/><path d="M47 45.4 L47.6 47.5 L49.75 48.1 L47.6 48.7 L47 50.9 L46.4 48.7 L44.25 48.1 L46.4 47.5 Z" fill="#FFB000" data-fg-d3bl24="0.8:2.20107:/src/app/App.tsx:75:9:2693:37:e:path"/><circle cx="32" cy="32" r="21.25" fill="url(#emberGlow)" data-fg-d3bl26="0.8:2.20107:/src/app/App.tsx:79:7:2773:59:e:circle"/><path d="M33.1 16.25 C23.9 16.25 16.1 23.1 16.1 32.1 C16.1 40.75 23.1 47.9 31.8 47.9 C38.1 47.9 43.7 44.3 46.3 39.1 C46.5 38.7 46.1 38.4 45.8 38.6 C42.7 40.9 38.8 42.2 34.6 42.2 C28.6 42.2 24.1 38.0 24.1 32.0 C24.1 25.9 27.8 20.1 33.1 16.9 C33.5 16.6 33.5 16.25 33.1 16.25 Z" fill="#FFB000" data-fg-d3bl28="0.8:2.20107:/src/app/App.tsx:82:7:2856:37:e:path"/><g fill="#FF6B2B" data-fg-d3bl30="0.8:2.20107:/src/app/App.tsx:85:7:2929:319:e:g:etete"><path d="M 23.5 25 C 22 23 24.5 21.75 23.5 19.75 C 26.25 21 26.75 23.5 25.5 25.75 Z" data-fg-d3bl31="0.8:2.20107:/src/app/App.tsx:86:9:2956:87:e:path"/><path d="M 19.75 34.25 C 18.25 32.25 20.75 31 19.75 29 C 22.5 30.25 23 32.75 21.75 35 Z" data-fg-d3bl32="0.8:2.20107:/src/app/App.tsx:87:9:3052:91:e:path"/><path d="M 25 43.5 C 23.5 41.5 26 40.25 25 38.25 C 27.75 39.5 28.25 42 27 44.25 Z" data-fg-d3bl33="0.8:2.20107:/src/app/App.tsx:88:9:3152:85:e:path"/></g><g fill="#FFB000" opacity="0.9" data-fg-d3bl34="0.8:2.20107:/src/app/App.tsx:90:7:3255:236:e:g:ete"><path d="M 24.5 26 C 23.5 24.75 25 24 24.5 22.75 C 26.25 23.5 26.75 25 25.75 26.5 Z" data-fg-d3bl35="0.8:2.20107:/src/app/App.tsx:91:9:3296:87:e:path"/><path d="M 21 35.25 C 20 34 21.5 33.25 21 32 C 22.75 32.75 23.25 34.25 22.25 35.75 Z" data-fg-d3bl36="0.8:2.20107:/src/app/App.tsx:92:9:3392:88:e:path"/></g><g fill="#FF7A1A" data-fg-d3bl38="0.8:2.20107:/src/app/App.tsx:95:7:3519:520:e:g:etetetete"><path d="M 30 18.75 C 29 17.25 31 16.25 30 14.5 C 32.25 15.5 32.75 17.5 31.75 19.5 Z" data-fg-d3bl39="0.8:2.20107:/src/app/App.tsx:96:9:3546:88:e:path"/><path d="M 40 28.75 C 39 27.25 41 26.25 40 24.5 C 42.25 25.5 42.75 27.5 41.75 29.5 Z" data-fg-d3bl40="0.8:2.20107:/src/app/App.tsx:97:9:3643:88:e:path"/><path d="M 36.25 47.5 C 35.25 46 37.25 45 36.25 43.25 C 38.5 44.25 39 46.25 38 48.25 Z" data-fg-d3bl41="0.8:2.20107:/src/app/App.tsx:98:9:3740:90:e:path"/><path d="M 18.75 27.5 C 17.75 26 19.75 25 18.75 23.25 C 21 24.25 21.5 26.25 20.5 28.25 Z" data-fg-d3bl42="0.8:2.20107:/src/app/App.tsx:99:9:3839:92:e:path"/><path d="M 45 38.75 C 44 37.25 46 36.25 45 34.5 C 47.25 35.5 47.75 37.5 46.75 39.5 Z" data-fg-d3bl43="0.8:2.20107:/src/app/App.tsx:100:9:3940:88:e:path"/></g></svg>