<?xml version="1.0" encoding="UTF-8"?>
<svg viewBox="0 0 64 64" class="w-64 h-64" data-fg-d3bl4="0.8:2.20107:/src/app/App.tsx:27:5:1315:81:e:svg:e:1" data-fgid-d3bl4=":r5:" data-fg-callsite-d3bl56="" id="moon-stars-svg" xmlns="http://www.w3.org/2000/svg"><g opacity="1" data-fg-d3bl0="0.8:2.20107:/src/app/App.tsx:16:5:1107:161:e:g:etx:1"><path d="M33.1 16.25 C23.9 16.25 16.1 23.1 16.1 32.1 C16.1 40.75 23.1 47.9 31.8 47.9 C38.1 47.9 43.7 44.3 46.3 39.1 C46.5 38.7 46.1 38.4 45.8 38.6 C42.7 40.9 38.8 42.2 34.6 42.2 C28.6 42.2 24.1 38.0 24.1 32.0 C24.1 25.9 27.8 20.1 33.1 16.9 C33.5 16.6 33.5 16.25 33.1 16.25 Z" fill="#FFB000" data-fg-d3bl1="0.8:2.20107:/src/app/App.tsx:17:7:1135:38:e:path"/><path d="M17.1 13.75 L17.75 15.9 L19.9 16.5 L17.75 17.1 L17.1 19.25 L16.5 17.1 L14.4 16.5 L16.5 15.9 Z" fill="#FFB000" data-fg-d3bl3="0.8:2.20107:/src/app/App.tsx:19:9:1211:38:e:path"/><path d="M43 15.75 L43.6 17.9 L45.75 18.5 L43.6 19.1 L43 21.25 L42.4 19.1 L40.25 18.5 L42.4 17.9 Z" fill="#FFB000" data-fg-d3bl3="0.8:2.20107:/src/app/App.tsx:19:9:1211:38:e:path"/><path d="M31.5 22.5 L32.1 24.5 L34.25 25.1 L32.1 25.7 L31.5 27.75 L30.9 25.7 L28.75 25.1 L30.9 24.5 Z" fill="#FFB000" data-fg-d3bl3="0.8:2.20107:/src/app/App.tsx:19:9:1211:38:e:path"/><path d="M37.25 33.4 L37.9 35.5 L40 36.1 L37.9 36.7 L37.25 38.9 L36.6 36.7 L34.5 36.1 L36.6 35.5 Z" fill="#FFB000" data-fg-d3bl3="0.8:2.20107:/src/app/App.tsx:19:9:1211:38:e:path"/><path d="M16 44.25 L16.6 46.4 L18.75 47 L16.6 47.6 L16 49.75 L15.4 47.6 L13.25 47 L15.4 46.4 Z" fill="#FFB000" data-fg-d3bl3="0.8:2.20107:/src/app/App.tsx:19:9:1211:38:e:path"/><path d="M47 45.4 L47.6 47.5 L49.75 48.1 L47.6 48.7 L47 50.9 L46.4 48.7 L44.25 48.1 L46.4 47.5 Z" fill="#FFB000" data-fg-d3bl3="0.8:2.20107:/src/app/App.tsx:19:9:1211:38:e:path"/></g></svg>