<?xml version="1.0" encoding="UTF-8"?>
<svg viewBox="0 0 512 512" class="w-64 h-64" data-fg-d3bl4="0.8:1.9212:/src/app/App.tsx:25:5:1197:634:e:svg:etxte:1" data-fgid-d3bl4=":r1o:" data-fg-callsite-d3bl53="" id="night-cloudy-svg" xmlns="http://www.w3.org/2000/svg"><g transform="translate(-90 -90)" data-fg-d3bl5="0.8:1.9212:/src/app/App.tsx:26:7:1253:70:e:g:e"><g opacity="1" data-fg-d3bl0="0.8:1.9212:/src/app/App.tsx:14:5:987:161:e:g:etx:1"><path d="M264.7 130.0 C191.0 130.0 128.5 184.8 128.5 256.8 C128.5 326.0 184.9 383.4 254.3 383.4 C304.9 383.4 349.4 354.2 370.4 312.4 C371.7 309.8 368.6 307.2 366.1 309.0 C341.3 327.0 310.4 337.8 276.9 337.8 C229.1 337.8 193.1 304.0 193.1 255.9 C193.1 207.3 222.2 160.7 264.9 134.9 C267.9 133.1 268.1 130.0 264.7 130.0 Z" fill="#FFB000" data-fg-d3bl1="0.8:1.9212:/src/app/App.tsx:15:7:1015:38:e:path"/><path d="M137 110 L142 127 L159 132 L142 137 L137 154 L132 137 L115 132 L132 127 Z" fill="#FFB000" data-fg-d3bl3="0.8:1.9212:/src/app/App.tsx:17:9:1091:38:e:path"/><path d="M344 126 L349 143 L366 148 L349 153 L344 170 L339 153 L322 148 L339 143 Z" fill="#FFB000" data-fg-d3bl3="0.8:1.9212:/src/app/App.tsx:17:9:1091:38:e:path"/><path d="M252 180 L257 196 L274 201 L257 206 L252 222 L247 206 L230 201 L247 196 Z" fill="#FFB000" data-fg-d3bl3="0.8:1.9212:/src/app/App.tsx:17:9:1091:38:e:path"/><path d="M298 267 L303 284 L320 289 L303 294 L298 311 L293 294 L276 289 L293 284 Z" fill="#FFB000" data-fg-d3bl3="0.8:1.9212:/src/app/App.tsx:17:9:1091:38:e:path"/><path d="M128 354 L133 371 L150 376 L133 381 L128 398 L123 381 L106 376 L123 371 Z" fill="#FFB000" data-fg-d3bl3="0.8:1.9212:/src/app/App.tsx:17:9:1091:38:e:path"/><path d="M376 363 L381 380 L398 385 L381 390 L376 407 L371 390 L354 385 L371 380 Z" fill="#FFB000" data-fg-d3bl3="0.8:1.9212:/src/app/App.tsx:17:9:1091:38:e:path"/></g></g><g transform="translate(0 60) scale(8)" data-fg-d3bl8="0.8:1.9212:/src/app/App.tsx:30:7:1431:389:e:g:e"><path d="M 49 52 H 17 C 10.37 52 5 46.63 5 40 C 5 33.8 9.7 28.63 15.78 28.06 C 17.8 21.15 24.1 16 31.5 16 C 39.35 16 45.97 21.7 47.65 29.15 C 54.07 30.06 59 35.47 59 42 C 59 48.63 55.63 52 49 52 Z" fill="#475569" stroke="#334155" stroke-width="2" stroke-linejoin="round" data-fg-d3bl9="0.8:1.9212:/src/app/App.tsx:31:9:1480:329:e:path"/></g></svg>