<svg width="512" height="512" viewBox="0 0 64 64" fill="none" xmlns="http://www.w3.org/2000/svg" class="" data-fg-cpel3="1.16:1.19451:/src/app/components/WeatherIcons.tsx:46:7:1104:573:e:svg:etete" data-fgid-cpel3=":re:" style="background-color: transparent;"><circle cx="20" cy="20" r="10" fill="#FFB300" data-fg-cpel4="1.16:1.19451:/src/app/components/WeatherIcons.tsx:47:9:1135:48:e:circle"/><path d="M20 4V8M20 32V36M36 20H32M8 20H4M31.31 8.69L29.49 10.51M10.51 29.49L8.69 31.31M31.31 31.31L29.49 29.49M10.51 10.51L8.69 8.69" stroke="#FFB300" stroke-width="4" stroke-linecap="round" data-fg-cpel5="1.16:1.19451:/src/app/components/WeatherIcons.tsx:48:9:1192:192:e:path"/><path d="M 49 52 H 17 C 10.37 52 5 46.63 5 40 C 5 33.8 9.7 28.63 15.78 28.06 C 17.8 21.15 24.1 16 31.5 16 C 39.35 16 45.97 21.7 47.65 29.15 C 54.07 30.06 59 35.47 59 42 C 59 48.63 55.63 52 49 52 Z" fill="#F8FAFC" data-fg-cpel6="1.16:1.19451:/src/app/components/WeatherIcons.tsx:49:9:1393:271:e:path" stroke="#CBD5E1" stroke-width="2" stroke-linejoin="round"/></svg>