<svg width="512" height="512" viewBox="0 0 64 64" fill="none" xmlns="http://www.w3.org/2000/svg" class="" data-fg-cpel29="1.16:1.19451:/src/app/components/WeatherIcons.tsx:96:7:4646:506:e:svg:etete" data-fgid-cpel29=":r26:" style="background-color: transparent;"><path d="M 49 40 H 17 C 10.37 40 5 34.63 5 28 C 5 21.8 9.7 16.63 15.78 16.06 C 17.8 9.15 24.1 4 31.5 4 C 39.35 4 45.97 9.7 47.65 17.15 C 54.07 18.06 59 23.47 59 30 C 59 36.63 55.63 40 49 40 Z" fill="#475569" data-fg-cpel30="1.16:1.19451:/src/app/components/WeatherIcons.tsx:97:9:4677:210:e:path"/><path d="M 20 44 L 16 56 M 46 44 L 42 56" stroke="#3B82F6" stroke-width="4" stroke-linecap="round" data-fg-cpel31="1.16:1.19451:/src/app/components/WeatherIcons.tsx:98:9:4896:99:e:path"/><path d="M 34 40 L 26 50 H 32 L 30 58 L 40 46 H 34 L 36 40 Z" fill="#F59E0B" stroke="#F59E0B" stroke-width="1" stroke-linejoin="round" data-fg-cpel32="1.16:1.19451:/src/app/components/WeatherIcons.tsx:99:9:5004:135:e:path"/></svg>